<?xml version="1.0" encoding="utf-8"?>
<!-- Generator: Adobe Illustrator 23.0.3, SVG Export Plug-In . SVG Version: 6.00 Build 0)  -->
<svg version="1.1" id="Layer_1" xmlns="http://www.w3.org/2000/svg" xmlns:xlink="http://www.w3.org/1999/xlink" x="0px" y="0px"
	 viewBox="0 0 459.3 459.3" style="enable-background:new 0 0 459.3 459.3;" xml:space="preserve">
<style type="text/css">
	.st0{fill:#B9BFCA;}
	.st1{display:none;fill:#B9BFCA;}
</style>
<g>
	<g>
		<g>
			<path class="st0" d="M180.1,389c0,0.1,0,0.2,0,0.3c0,27.4,22.2,49.6,49.6,49.6s49.6-22.2,49.6-49.6c0-0.1,0-0.2,0-0.3H180.1z"/>
			<path class="st1" d="M252,67.9V42.7c0-12.3-10-22.3-22.3-22.3c-12.3,0-22.3,10-22.3,22.3v25.2"/>
			<path class="st0" d="M207.4,67.9c-52.1,10.4-91.5,56.4-91.5,111.6c0,21.6,0,69.3,0,81.8l-44.7,65.6c-4.7,6.9-5.2,15.9-1.3,23.2
				s11.6,12,19.9,12h279.5c8.4,0,16-4.6,19.9-12c3.9-7.4,3.4-16.3-1.3-23.2l-44.7-65.6c0-20.1,0-69.2,0-81.8
				c0-55.2-39.3-101.2-91.5-111.6"/>
		</g>
	</g>
</g>
</svg>
