<svg xmlns="http://www.w3.org/2000/svg" x="0px" y="0px"
width="24" height="24"
viewBox="0 0 226 226"
style=" fill:#000000;"><g fill="none" fill-rule="nonzero" stroke="none" stroke-width="1" stroke-linecap="butt" stroke-linejoin="miter" stroke-miterlimit="10" stroke-dasharray="" stroke-dashoffset="0" font-family="none" font-weight="none" font-size="none" text-anchor="none" style="mix-blend-mode: normal"><path d="M0,226v-226h226v226z" fill="none"></path><g fill="#7fa6f1"><path d="M94.16667,18.52067c-1.72325,0 -3.44209,0.54926 -4.89225,1.63688l-35.90104,26.92578h113l-21.50016,-16.12972c-2.25058,-1.68558 -5.20772,-2.08373 -7.83497,-1.06673l-16.47917,6.382l-21.50016,-16.11133c-1.45017,-1.08762 -3.169,-1.63688 -4.89225,-1.63688zM44.04867,65.91667c-3.46533,0 -6.13511,3.05527 -5.68311,6.49235l15.78027,118.40723c1.25242,9.36017 9.23231,16.35042 18.66781,16.35042h77.6875c9.44492,0 17.41539,-6.99026 18.66781,-16.35042l15.79866,-118.40723c0.452,-3.43708 -2.23617,-6.49235 -5.7015,-6.49235z"></path></g></g></svg>