<svg xmlns="http://www.w3.org/2000/svg" viewBox="0 0 359.78 454.04"><defs><style>.cls-1{fill:#a6afbd;}</style></defs><title>Asset 1</title><g id="Layer_2" data-name="Layer 2"><g id="Capa_1" data-name="Capa 1"><path class="cls-1" d="M179.92,454H28.28A28.29,28.29,0,0,1,0,425.76V28.28A28.29,28.29,0,0,1,28.28,0H230.34V9.36a26.58,26.58,0,0,0-.16,3V89.82A39.86,39.86,0,0,0,270,129.66h77.47c.8,0,1.66-.06,2.46-.11h9.84V425.76A28.29,28.29,0,0,1,331.5,454H179.92Zm-5.72-96.13h98.86a13.37,13.37,0,0,0,0-26.74H174.14a13.37,13.37,0,1,0,.06,26.74ZM75.28,289.68H273.06a13.37,13.37,0,0,0,0-26.73H75.28a13.37,13.37,0,1,0,0,26.73ZM273.06,190.5H75.66a13.62,13.62,0,0,0-13.73,12.71,13.38,13.38,0,0,0,13.35,14H272.64a13.65,13.65,0,0,0,13.77-12.76A13.38,13.38,0,0,0,273.06,190.5Z"/><path class="cls-1" d="M347.48,113.62H269.79a23.74,23.74,0,0,1-23.52-23.53V12.35a11.9,11.9,0,0,1,12-11.92A11.59,11.59,0,0,1,266.59,4L355.93,93.3A11.91,11.91,0,0,1,347.48,113.62Z"/></g></g></svg>