<?xml version="1.0" encoding="utf-8"?>
<!-- Generator: Adobe Illustrator 23.0.3, SVG Export Plug-In . SVG Version: 6.00 Build 0)  -->
<svg version="1.1" id="Capa_1" xmlns="http://www.w3.org/2000/svg" xmlns:xlink="http://www.w3.org/1999/xlink" x="0px" y="0px"
	 viewBox="0 0 512 512" style="enable-background:new 0 0 512 512;" xml:space="preserve">
<style type="text/css">
	.st0{display:none;fill:#A6AFBD;}
	.st1{fill:#A6AFBD;}
</style>
<g transform="matrix(-1 0 0 1 957.599 0)">
	<g>
		<path class="st0" d="M907.9,85h-15v367.8c0,24.4-19.9,44.3-44.3,44.3H696.9H576.3v13.6c0,15.6,12.7,28.3,28.3,28.3h151.6h151.6
			c15.6,0,28.3-12.7,28.3-28.3V113.2C936.1,97.6,923.5,85,907.9,85z"/>
		<path class="st1" d="M696.9,481h151.6c15.6,0,28.3-12.7,28.3-28.3V85V55.3c0-15.6-12.7-28.3-28.3-28.3H696.9h-50.4v9.4
			c0.1,1,0.2,2,0.2,3V101v15.8c0,22-17.9,39.8-39.8,39.8H591h-61.6c-0.8,0-1.7-0.1-2.5-0.1h-9.8v296.2c0,15.6,12.7,28.3,28.3,28.3
			h31H696.9L696.9,481z M702.6,384.9h-98.9c-7.4,0-13.4-6-13.4-13.4c0-7.4,6-13.4,13.4-13.4h98.9c7.4,0,13.4,6,13.4,13.4
			C716.1,378.9,710,384.9,702.6,384.9z M801.6,316.7H603.8c-7.4,0-13.4-6-13.4-13.4c0-7.4,6-13.4,13.4-13.4h197.8
			c7.4,0,13.4,6,13.4,13.4C814.9,310.7,808.9,316.7,801.6,316.7z M603.8,217.5h197.4c7.2,0,13.4,5.5,13.7,12.7
			c0.4,7.7-5.8,14-13.4,14H604.2c-7.2,0-13.4-5.5-13.8-12.8C590.1,223.8,596.2,217.5,603.8,217.5z"/>
		<path class="st1" d="M529.4,140.6h77.5c0.1,0,0.2,0,0.2,0c12.9-0.1,23.4-10.6,23.5-23.5c0-0.1,0-0.2,0-0.2V39.4
			c0-7.2-5.9-11.9-12-11.9c-2.9,0-5.9,1.1-8.3,3.5l-89.3,89.3C513.4,127.8,518.7,140.6,529.4,140.6z"/>
	</g>
</g>
</svg>
