<?xml version="1.0" encoding="utf-8"?>
<!-- Generator: Adobe Illustrator 23.0.3, SVG Export Plug-In . SVG Version: 6.00 Build 0)  -->
<svg version="1.1" id="Layer_1" xmlns="http://www.w3.org/2000/svg" xmlns:xlink="http://www.w3.org/1999/xlink" x="0px" y="0px"
	 viewBox="0 0 160 160" style="enable-background:new 0 0 160 160;" xml:space="preserve">
<style type="text/css">
	.st0{fill:#0E2045;}
</style>
<path class="st0" d="M145,37H15c-4.9,0-9-4-9-9v0c0-4.9,4-9,9-9h130c4.9,0,9,4,9,9v0C154,33,149.9,37,145,37z"/>
<path class="st0" d="M146,88H16c-4.9,0-9-4-9-9v0c0-4.9,4-9,9-9h130c4.9,0,9,4,9,9v0C155,84,150.9,88,146,88z"/>
<path class="st0" d="M77,141H16c-4.9,0-9-4.1-9-9v0c0-4.9,4-9,9-9h61c4.9,0,9,4,9,9v0C86,136.9,82,141,77,141z"/>
</svg>
